<svg width="20" height="20" viewBox="0 0 20 20" fill="none" xmlns="http://www.w3.org/2000/svg">
<ellipse cx="10" cy="10" rx="10" ry="9.5" fill="#091E29"/>
<path d="M13.0775 8.71488L8.64801 12.5541C8.60943 12.5877 8.56359 12.6143 8.51312 12.6325C8.46264 12.6506 8.40852 12.66 8.35387 12.66C8.29921 12.66 8.2451 12.6506 8.19462 12.6325C8.14415 12.6143 8.0983 12.5877 8.05973 12.5541L6.12184 10.8744C6.08321 10.841 6.05257 10.8012 6.03166 10.7575C6.01076 10.7137 6 10.6668 6 10.6195C6 10.5721 6.01076 10.5253 6.03166 10.4815C6.05257 10.4378 6.08321 10.398 6.12184 10.3645C6.16047 10.3311 6.20632 10.3045 6.25679 10.2864C6.30726 10.2683 6.36135 10.2589 6.41598 10.2589C6.47061 10.2589 6.5247 10.2683 6.57517 10.2864C6.62564 10.3045 6.6715 10.3311 6.71013 10.3645L8.35421 11.7896L12.4899 8.20558C12.5679 8.13796 12.6737 8.09998 12.784 8.09998C12.8943 8.09998 13.0001 8.13796 13.0782 8.20558C13.1562 8.2732 13.2 8.3649 13.2 8.46053C13.2 8.55615 13.1562 8.64786 13.0782 8.71548L13.0775 8.71488Z" fill="white"/>
</svg>
