<svg width="53" height="53" viewBox="0 0 53 53" fill="none" xmlns="http://www.w3.org/2000/svg">
<g clip-path="url(#clip0_801_17)">
<path d="M2.94446 26.5C2.94446 31.1588 4.32597 35.7131 6.91428 39.5867C9.5026 43.4604 13.1815 46.4796 17.4857 48.2625C21.7899 50.0453 26.5261 50.5118 31.0955 49.6029C35.6648 48.694 39.862 46.4506 43.1563 43.1563C46.4506 39.862 48.6941 35.6648 49.603 31.0954C50.5119 26.5261 50.0454 21.7899 48.2625 17.4857C46.4796 13.1814 43.4605 9.50256 39.5868 6.91425C35.7131 4.32593 31.1589 2.94442 26.5 2.94442C20.2527 2.94442 14.2612 5.42616 9.84372 9.84368C5.4262 14.2612 2.94446 20.2527 2.94446 26.5ZM47.1111 26.5C47.1111 30.5765 45.9023 34.5614 43.6375 37.9509C41.3727 41.3404 38.1537 43.9822 34.3875 45.5422C30.6214 47.1022 26.4771 47.5103 22.479 46.715C18.4808 45.9198 14.8083 43.9567 11.9258 41.0742C9.04324 38.1917 7.08022 34.5192 6.28494 30.521C5.48966 26.5228 5.89782 22.3786 7.45783 18.6124C9.01784 14.8463 11.6596 11.6272 15.0491 9.36246C18.4386 7.09768 22.4235 5.88886 26.5 5.88886C31.9664 5.88886 37.2089 8.06039 41.0743 11.9257C44.9396 15.7911 47.1111 21.0336 47.1111 26.5Z" fill="#091E29"/>
<path d="M12.1605 26.3822L23.3641 37.5859C23.4961 37.74 23.6585 37.8651 23.8412 37.9535C24.0238 38.0419 24.2228 38.0915 24.4255 38.0994C24.6283 38.1072 24.8305 38.073 25.0194 37.999C25.2083 37.925 25.3799 37.8127 25.5234 37.6693C25.6668 37.5258 25.7791 37.3542 25.8531 37.1653C25.9271 36.9764 25.9613 36.7742 25.9535 36.5714C25.9456 36.3687 25.896 36.1697 25.8076 35.9871C25.7193 35.8044 25.5941 35.642 25.44 35.51L17.9316 27.9722H40.015C40.4054 27.9722 40.7799 27.8171 41.056 27.541C41.3321 27.2649 41.4872 26.8905 41.4872 26.5C41.4872 26.1096 41.3321 25.7351 41.056 25.459C40.7799 25.1829 40.4054 25.0278 40.015 25.0278H17.6666L25.44 17.2545C25.5941 17.1225 25.7193 16.9601 25.8076 16.7774C25.896 16.5948 25.9456 16.3958 25.9535 16.1931C25.9613 15.9903 25.9271 15.7881 25.8531 15.5992C25.7791 15.4103 25.6668 15.2387 25.5234 15.0952C25.3799 14.9518 25.2083 14.8395 25.0194 14.7655C24.8305 14.6915 24.6283 14.6573 24.4255 14.6651C24.2228 14.673 24.0238 14.7226 23.8412 14.811C23.6585 14.8994 23.4961 15.0245 23.3641 15.1786L12.1605 26.3822Z" fill="#091E29"/>
</g>
<defs>
<clipPath id="clip0_801_17">
<rect width="53" height="53" fill="white" transform="matrix(0 -1 1 0 0 53)"/>
</clipPath>
</defs>
</svg>
